<svg width="575" height="162" viewBox="0 0 575 162" fill="none" xmlns="http://www.w3.org/2000/svg">
<path d="M94.8897 39.9991L81.5517 26.6743L68.2188 40.0238L81.5418 53.3486L94.8897 39.9991Z" fill="#001AAE"/>
<path d="M68.2188 121.328L81.5418 134.653L94.8649 121.328L81.5517 108.003L68.2188 121.328Z" fill="#001AAE"/>
<path d="M54.2223 80.6858L40.8992 67.3611L40.6766 67.5788L27.5762 80.6957L40.6667 93.7879L40.8992 94.0205L54.2223 80.6858Z" fill="#001AAE"/>
<path d="M94.6567 80.6958L40.6668 26.6743L27.3289 39.9991L67.9957 80.6859L26.6709 122.001L39.994 135.326L94.6567 80.6958Z" fill="#001AAE"/>
<path d="M147.924 98.5281H170.187V112.244H133.676V49.8999H147.924V98.5281Z" fill="#001AAE"/>
<path d="M208.306 67.7123H221.664V112.244H208.306V108.058C205.159 111.686 200.736 113.5 195.037 113.5C189.16 113.5 184.143 111.229 179.988 106.687C175.832 102.145 173.754 96.5785 173.754 89.9879C173.754 83.3906 175.832 77.8242 179.988 73.2886C184.143 68.753 189.16 66.4819 195.037 66.4753C200.736 66.4753 205.159 68.2896 208.306 71.9181V67.7123ZM190.05 97.8947C192.009 99.854 194.562 100.834 197.709 100.834C200.855 100.834 203.408 99.854 205.367 97.8947C207.326 95.9353 208.306 93.2964 208.306 89.978C208.306 86.6596 207.326 84.0207 205.367 82.0613C203.408 80.1019 200.855 79.1222 197.709 79.1222C194.562 79.1222 192.009 80.1019 190.05 82.0613C188.091 84.0207 187.112 86.6596 187.112 89.978C187.112 93.2964 188.091 95.9386 190.05 97.9046V97.8947Z" fill="#001AAE"/>
<path d="M257.581 80.5374H248.409V96.3015C248.409 98.0828 249.121 99.2109 250.546 99.6859C251.971 100.161 254.316 100.309 257.581 100.131V112.244C249.088 113.134 243.211 112.318 239.949 109.795C236.687 107.271 235.054 102.773 235.051 96.3015V80.5374H227.927V67.7124H235.051V59.2515L248.409 55.2437V67.7124H257.581V80.5374Z" fill="#001AAE"/>
<path d="M286.448 113.491C279.68 113.491 274.055 111.234 269.573 106.722C265.091 102.209 262.85 96.628 262.85 89.978C262.85 83.328 265.091 77.7467 269.573 73.2342C274.055 68.7217 279.68 66.4654 286.448 66.4654C290.589 66.4302 294.664 67.5067 298.248 69.5826C301.72 71.5414 304.597 74.4036 306.574 77.8655L294.908 84.6342C293.299 81.3191 290.416 79.6616 286.26 79.6616C284.921 79.6157 283.587 79.8479 282.342 80.3436C281.097 80.8392 279.969 81.5875 279.027 82.5412C277.128 84.4709 276.178 86.9449 276.178 89.9631C276.178 92.9814 277.128 95.4553 279.027 97.385C279.965 98.339 281.09 99.0885 282.331 99.5867C283.573 100.085 284.904 100.321 286.24 100.28C290.456 100.28 293.335 98.617 294.878 95.292L306.544 101.972C304.596 105.464 301.733 108.358 298.262 110.344C294.679 112.436 290.598 113.523 286.448 113.491Z" fill="#001AAE"/>
<path d="M338.534 66.4656C343.283 66.4656 347.241 68.0984 350.407 71.364C353.573 74.6296 355.161 79.1421 355.171 84.9015V112.244H341.814V86.8609C341.814 84.2484 341.086 82.2445 339.632 80.8492C338.889 80.1493 338.014 79.604 337.059 79.2447C336.103 78.8854 335.086 78.7194 334.066 78.7562C331.513 78.7562 329.495 79.5281 328.011 81.0718C326.527 82.6156 325.784 84.9015 325.784 87.9297V112.244H312.427V49.8999H325.784V71.8984C328.466 68.2765 332.716 66.4656 338.534 66.4656Z" fill="#001AAE"/>
<path d="M374.214 112.244L357.027 49.8999H371.988L382.763 93.5406L394.785 49.8999H406.362L418.384 93.5406L429.159 49.8999H444.12L426.952 112.244H410.725L400.573 75.4609L390.422 112.244H374.214Z" fill="#001AAE"/>
<path d="M461.816 61.4333C461.073 62.176 460.192 62.7651 459.221 63.1671C458.251 63.569 457.211 63.7759 456.161 63.7759C455.111 63.7759 454.071 63.569 453.101 63.1671C452.131 62.7651 451.249 62.176 450.506 61.4333C449.764 60.6906 449.175 59.8089 448.773 58.8386C448.371 57.8682 448.164 56.8282 448.164 55.7778C448.164 54.7275 448.371 53.6875 448.773 52.7171C449.175 51.7467 449.764 50.8651 450.506 50.1224C451.249 49.3797 452.131 48.7905 453.101 48.3886C454.071 47.9867 455.111 47.7798 456.161 47.7798C457.211 47.7798 458.251 47.9867 459.221 48.3886C460.192 48.7905 461.073 49.3797 461.816 50.1224C462.558 50.8651 463.148 51.7467 463.549 52.7171C463.951 53.6875 464.158 54.7275 464.158 55.7778C464.158 56.8282 463.951 57.8682 463.549 58.8386C463.148 59.8089 462.558 60.6906 461.816 61.4333V61.4333ZM449.482 112.244V67.7122H462.84V112.244H449.482Z" fill="#001AAE"/>
<path d="M515.302 112.244H500.183L485.935 92.5609V112.244H472.577V49.8999H485.935V87.2172L499.293 67.7124H514.877L498.669 89.9781L515.302 112.244Z" fill="#001AAE"/>
<path d="M532.246 61.4333C531.515 62.2244 530.631 62.8596 529.649 63.3007C528.666 63.7419 527.604 63.9799 526.528 64.0005C525.451 64.0211 524.381 63.8239 523.382 63.4206C522.383 63.0174 521.476 62.4164 520.715 61.6538C519.955 60.8913 519.356 59.9828 518.955 58.9831C518.554 57.9833 518.359 56.9127 518.382 55.8357C518.405 54.7587 518.645 53.6975 519.088 52.7157C519.531 51.7339 520.169 50.8518 520.961 50.1224C522.461 48.6224 524.495 47.7798 526.616 47.7798C528.737 47.7798 530.771 48.6224 532.271 50.1224C533.77 51.6223 534.613 53.6566 534.613 55.7778C534.613 57.8991 533.77 59.9334 532.271 61.4333H532.246ZM519.912 112.244V67.7122H533.27V112.244H519.912Z" fill="#001AAE"/>
</svg>
